<svg width="19" height="26" viewBox="0 0 19 26" fill="none" xmlns="http://www.w3.org/2000/svg">
<path d="M11.7852 13.1605C11.5762 14.0801 12.1614 15.0414 13.1227 15.2504C14.0841 15.4594 15.0454 14.8742 15.2544 13.9547L17.8041 3.00355C18.0131 2.08399 17.4279 1.12263 16.4666 0.913637C15.5052 0.704646 14.5439 1.28982 14.3349 2.20938L11.7852 13.1605Z" fill="url(#paint0_linear_622_5)" stroke="white" stroke-width="0.5"/>
<path d="M15.0877 14.2464C15.0877 14.2464 11.4513 10.6517 5.01433 12.4491C5.01433 12.4491 1.21069 13.1178 1.41968 15.0405C1.41968 15.0405 1.29429 19.8055 2.92442 22.6478C4.93918 26.0968 12.2089 26.6854 15.8299 22.6478C16.6411 21.7433 16.5642 20.9305 17.0002 19.5C17.0002 18 17.0002 14.5 15.0877 14.2464Z" fill="url(#paint1_linear_622_5)" stroke="white" stroke-width="0.5"/>
<path d="M8.60748 13.7869C8.77467 14.7482 9.73603 15.3334 10.6974 15.1662C11.6588 14.999 12.3275 14.0794 12.1603 13.1181L10.0704 2.08334C9.90323 1.12199 8.94187 0.536809 7.98051 0.704002C7.01915 0.871195 6.35038 1.79076 6.55937 2.75212L8.60748 13.7869" fill="url(#paint2_linear_622_5)"/>
<path d="M8.60748 13.7869C8.77467 14.7482 9.73603 15.3334 10.6974 15.1662C11.6588 14.999 12.3275 14.0794 12.1603 13.1181L10.0704 2.08334C9.90323 1.12199 8.94187 0.536809 7.98051 0.704002C7.01915 0.871195 6.35038 1.79076 6.55937 2.75212L8.60748 13.7869" stroke="white" stroke-width="0.5"/>
<path d="M1.21185 13.2442C1.08646 12.2828 1.79703 11.4051 2.80019 11.2797H2.84198C3.80334 11.1961 4.7229 11.8649 4.8065 12.868L5.09909 15.5849C5.22448 16.5463 4.51391 17.424 3.51076 17.5494H3.46896C2.4658 17.633 1.58804 16.9642 1.50444 15.9611L1.21185 13.2442Z" fill="url(#paint3_linear_622_5)"/>
<path d="M1.21185 13.2442C1.08646 12.2828 1.79703 11.4051 2.80019 11.2797H2.84198C3.80334 11.1961 4.7229 11.8649 4.8065 12.868L5.09909 15.5849C5.22448 16.5463 4.51391 17.424 3.51076 17.5494H3.46896C2.4658 17.633 1.58804 16.9642 1.50444 15.9611L1.21185 13.2442" stroke="white" stroke-width="0.5"/>
<path d="M4.59393 11.2797C4.46854 10.3183 5.17911 9.44054 6.18227 9.31515H6.22406C7.22722 9.23155 8.10498 9.90032 8.18858 10.9035L8.48117 13.6204C8.60656 14.5817 7.89599 15.4595 6.89284 15.5849H6.85104C5.84788 15.6685 4.97012 14.9997 4.88652 13.9965L4.59393 11.2797Z" fill="url(#paint4_linear_622_5)"/>
<path d="M4.59393 11.2797C4.46854 10.3183 5.17911 9.44054 6.18227 9.31515H6.22406C7.22722 9.23155 8.10498 9.90032 8.18858 10.9035L8.48117 13.6204C8.60656 14.5817 7.89599 15.4595 6.89284 15.5849H6.85104C5.84788 15.6685 4.97012 14.9997 4.88652 13.9965L4.59393 11.2797" stroke="white" stroke-width="0.5"/>
<path d="M2.91507 16.9648C3.91823 16.8394 4.58701 16.0035 4.50341 15.0003L4.21082 12.2834C4.16902 12.0326 4.04363 11.74 3.91823 11.4893C4.54521 11.7818 4.7542 12.2834 4.8378 12.8686L5.13038 15.5855C5.25578 16.5469 4.54521 17.4246 3.58385 17.5082C2.87328 17.5918 2.2045 17.2156 1.87012 16.6722C2.12091 16.8812 2.49709 17.0066 2.91507 16.9648Z" fill="white"/>
<path d="M13.4924 16.8808C11.486 15.9195 6.93003 17.5914 7.84959 21.7712C7.84959 17.4242 11.7786 16.6718 13.4924 16.8808Z" fill="white"/>
<path d="M12.9129 12.9515C11.4082 12.0738 11.1156 13.4531 8.56588 13.5367C7.43732 13.5785 6.93574 15.8774 8.64947 16.7134C10.9902 17.8837 11.1992 16.2118 11.7425 16.8806C12.3695 17.5493 12.9129 17.7165 13.4563 18.5107C13.8325 19.0959 12.8293 21.2694 12.8293 21.2694C12.8293 21.2694 15.7134 23.3175 16.2986 22.1471C17.3853 19.9736 17.0927 18.3017 17.0509 17.0478C16.9673 14.0801 15.2954 14.3727 12.9129 12.9515Z" fill="url(#paint5_linear_622_5)"/>
<path d="M12.9129 12.9515C11.4082 12.0738 11.1156 13.4531 8.56588 13.5367C7.43732 13.5785 6.93574 15.8774 8.64947 16.7134C10.9902 17.8837 11.1992 16.2118 11.7425 16.8806C12.3695 17.5493 12.9129 17.7165 13.4563 18.5107C13.8325 19.0959 12.8293 21.2694 12.8293 21.2694C12.8293 21.2694 15.7134 23.3175 16.2986 22.1471C17.3853 19.9736 17.0927 18.3017 17.0509 17.0478C16.9673 14.0801 15.2954 14.3727 12.9129 12.9515" stroke="white" stroke-width="0.5"/>
<defs>
<linearGradient id="paint0_linear_622_5" x1="12.3087" y1="-0.436267" x2="20.7811" y2="0.709159" gradientUnits="userSpaceOnUse">
<stop stop-color="#C54A92"/>
<stop offset="1" stop-color="#2E62EB"/>
</linearGradient>
<linearGradient id="paint1_linear_622_5" x1="2.89867" y1="10.6952" x2="22.8269" y2="18.1003" gradientUnits="userSpaceOnUse">
<stop stop-color="#C54A92"/>
<stop offset="1" stop-color="#2E62EB"/>
</linearGradient>
<linearGradient id="paint2_linear_622_5" x1="7.04611" y1="-0.640785" x2="14.9311" y2="0.342" gradientUnits="userSpaceOnUse">
<stop stop-color="#C54A92"/>
<stop offset="1" stop-color="#2E62EB"/>
</linearGradient>
<linearGradient id="paint3_linear_622_5" x1="1.56049" y1="10.7029" x2="6.88468" y2="11.7628" gradientUnits="userSpaceOnUse">
<stop stop-color="#C54A92"/>
<stop offset="1" stop-color="#2E62EB"/>
</linearGradient>
<linearGradient id="paint4_linear_622_5" x1="4.94257" y1="8.73838" x2="10.2668" y2="9.79826" gradientUnits="userSpaceOnUse">
<stop stop-color="#C54A92"/>
<stop offset="1" stop-color="#2E62EB"/>
</linearGradient>
<linearGradient id="paint5_linear_622_5" x1="8.4243" y1="11.7676" x2="20.7749" y2="15.6063" gradientUnits="userSpaceOnUse">
<stop stop-color="#C54A92"/>
<stop offset="1" stop-color="#2E62EB"/>
</linearGradient>
</defs>
</svg>
